<svg xmlns="http://www.w3.org/2000/svg" width="1088" height="472" viewBox="0 0 1088 472">
  <defs>
    <clipPath id="card-clip">
      <rect width="1088" height="472" rx="20"/>
    </clipPath>
    <style>
      text { font-family: Inter, -apple-system, BlinkMacSystemFont, sans-serif; }
    </style>
  </defs>

  <!-- Layout (no Platforms col):
       Episode  x=28  w=300  end=328
       gap 16
       Timeline x=344 w=532  end=876
       gap 16
       Duration x=892 w=64   end=956  (text right-edge=956)
       gap 16
       Ad Load  x=972 w=88   end=1060 (text right-edge=1060)
       right pad 28 → total=1088
  -->

  <g clip-path="url(#card-clip)" id="Recent-Episodes-Card">

    <!-- Background -->
    <rect width="1088" height="472" fill="white"/>

    <!-- ── SECTION HEADER ── -->
    <g id="Section-Header">
      <text x="28" y="43" font-size="16" font-weight="700" fill="#0e1323">Recent Episodes</text>
      <text x="1060" y="43" font-size="12" font-weight="500" fill="#707481" text-anchor="end">Showing latest 5 of 247 episodes</text>
    </g>
    <line x1="0" y1="64" x2="1088" y2="64" stroke="#e8e8e8" stroke-width="1"/>

    <!-- ── COLUMN HEADERS ── -->
    <g id="Column-Headers">
      <text x="80"   y="85" font-size="9" font-weight="700" fill="#707481">EPISODE</text>
      <text x="344"  y="85" font-size="9" font-weight="700" fill="#707481">AD TIMELINE</text>
      <text x="956"  y="85" font-size="9" font-weight="700" fill="#707481" text-anchor="end">DURATION</text>
      <text x="1060" y="85" font-size="9" font-weight="700" fill="#707481" text-anchor="end">AD LOAD</text>
    </g>
    <line x1="0" y1="104" x2="1088" y2="104" stroke="#e8e8e8" stroke-width="1"/>

    <!-- ══════════════════════════════════════ -->
    <!-- ROW 1 · Ep 247 · base y=104          -->
    <!-- ══════════════════════════════════════ -->
    <g id="Row-Ep247">
      <rect x="28" y="116" width="40" height="40" rx="8" fill="#1c3a38"/>
      <text x="48" y="140" font-size="10" font-weight="800" fill="white" text-anchor="middle">NH</text>
      <text x="80" y="128" font-size="13" font-weight="600" fill="#0e1323">Travis Kelce on His Return to Training Camp, Taylor&#x2019;s&#x2026;</text>
      <text x="80" y="145" font-size="11" fill="#707481">Nov 7th</text>
      <rect x="133" y="135" width="42" height="14" rx="3" fill="#f3f4f6"/>
      <text x="154" y="146" font-size="10" font-weight="600" fill="#707481" text-anchor="middle">Ep 247</text>
      <!-- Timeline: x=344 w=532 -->
      <rect x="344" y="132" width="532" height="8" rx="3" fill="#e8e8e8"/>
      <rect x="344" y="132" width="16" height="8" rx="2" fill="#ff6b6b"/>
      <rect x="482" y="132" width="16" height="8" rx="2" fill="#ff6b6b"/>
      <rect x="647" y="132" width="16" height="8" rx="2" fill="#4f9cf9"/>
      <rect x="807" y="132" width="16" height="8" rx="2" fill="#a855f7"/>
      <!-- Duration -->
      <text x="956" y="138" font-size="12" font-weight="600" fill="#5a5f6e" text-anchor="end">1:14:22</text>
      <!-- Ad load 8% LOW -->
      <text x="1060" y="122" font-size="9" font-weight="600" fill="#707481" text-anchor="end">Ad Load</text>
      <text x="1060" y="139" font-size="14" font-weight="800" fill="#0e1323" text-anchor="end">8%</text>
      <rect x="1028" y="143" width="32" height="14" rx="3" fill="#d6f0e0"/>
      <text x="1044" y="154" font-size="8" font-weight="700" fill="#0d6832" text-anchor="middle">LOW</text>
    </g>
    <line x1="0" y1="168" x2="1088" y2="168" stroke="#e8e8e8" stroke-width="1"/>

    <!-- ══════════════════════════════════════ -->
    <!-- ROW 2 · Ep 246 · base y=168          -->
    <!-- ══════════════════════════════════════ -->
    <g id="Row-Ep246">
      <rect x="28" y="180" width="40" height="40" rx="8" fill="#1c3a38"/>
      <text x="48" y="204" font-size="10" font-weight="800" fill="white" text-anchor="middle">NH</text>
      <text x="80" y="192" font-size="13" font-weight="600" fill="#0e1323">Jason on Playing Against Himself at Joint Practice&#x2026;</text>
      <text x="80" y="209" font-size="11" fill="#707481">Oct 31st</text>
      <rect x="137" y="199" width="42" height="14" rx="3" fill="#f3f4f6"/>
      <text x="158" y="210" font-size="10" font-weight="600" fill="#707481" text-anchor="middle">Ep 246</text>
      <!-- Timeline -->
      <rect x="344" y="196" width="532" height="8" rx="3" fill="#e8e8e8"/>
      <rect x="344" y="196" width="16" height="8" rx="2" fill="#ff6b6b"/>
      <rect x="456" y="196" width="16" height="8" rx="2" fill="#ff6b6b"/>
      <rect x="610" y="196" width="16" height="8" rx="2" fill="#f97316"/>
      <rect x="732" y="196" width="16" height="8" rx="2" fill="#e8b84b"/>
      <rect x="844" y="196" width="16" height="8" rx="2" fill="#a855f7"/>
      <!-- Duration -->
      <text x="956" y="202" font-size="12" font-weight="600" fill="#5a5f6e" text-anchor="end">58:44</text>
      <!-- Ad load 11% AVG -->
      <text x="1060" y="186" font-size="9" font-weight="600" fill="#707481" text-anchor="end">Ad Load</text>
      <text x="1060" y="203" font-size="14" font-weight="800" fill="#0e1323" text-anchor="end">11%</text>
      <rect x="1028" y="207" width="32" height="14" rx="3" fill="#fff3cd"/>
      <text x="1044" y="218" font-size="8" font-weight="700" fill="#92600a" text-anchor="middle">AVG</text>
    </g>
    <line x1="0" y1="232" x2="1088" y2="232" stroke="#e8e8e8" stroke-width="1"/>

    <!-- ══════════════════════════════════════ -->
    <!-- ROW 3 · Ep 245 · base y=232          -->
    <!-- ══════════════════════════════════════ -->
    <g id="Row-Ep245">
      <rect x="28" y="244" width="40" height="40" rx="8" fill="#1c3a38"/>
      <text x="48" y="268" font-size="10" font-weight="800" fill="white" text-anchor="middle">NH</text>
      <text x="80" y="256" font-size="13" font-weight="600" fill="#0e1323">Everyone Knows the Answer to This &#x2014; Chiefs vs. Raiders&#x2026;</text>
      <text x="80" y="273" font-size="11" fill="#707481">Oct 25th</text>
      <rect x="137" y="263" width="42" height="14" rx="3" fill="#f3f4f6"/>
      <text x="158" y="274" font-size="10" font-weight="600" fill="#707481" text-anchor="middle">Ep 245</text>
      <!-- Timeline -->
      <rect x="344" y="260" width="532" height="8" rx="3" fill="#e8e8e8"/>
      <rect x="344" y="260" width="16" height="8" rx="2" fill="#ff6b6b"/>
      <rect x="520" y="260" width="16" height="8" rx="2" fill="#ff6b6b"/>
      <rect x="775" y="260" width="16" height="8" rx="2" fill="#00b09b"/>
      <!-- Duration -->
      <text x="956" y="266" font-size="12" font-weight="600" fill="#5a5f6e" text-anchor="end">43:03</text>
      <!-- Ad load 10% LOW -->
      <text x="1060" y="250" font-size="9" font-weight="600" fill="#707481" text-anchor="end">Ad Load</text>
      <text x="1060" y="267" font-size="14" font-weight="800" fill="#0e1323" text-anchor="end">10%</text>
      <rect x="1028" y="271" width="32" height="14" rx="3" fill="#d6f0e0"/>
      <text x="1044" y="282" font-size="8" font-weight="700" fill="#0d6832" text-anchor="middle">LOW</text>
    </g>
    <line x1="0" y1="296" x2="1088" y2="296" stroke="#e8e8e8" stroke-width="1"/>

    <!-- ══════════════════════════════════════ -->
    <!-- ROW 4 · Ep 244 · base y=296          -->
    <!-- ══════════════════════════════════════ -->
    <g id="Row-Ep244">
      <rect x="28" y="308" width="40" height="40" rx="8" fill="#1c3a38"/>
      <text x="48" y="332" font-size="10" font-weight="800" fill="white" text-anchor="middle">NH</text>
      <text x="80" y="320" font-size="13" font-weight="600" fill="#0e1323">Travis &amp; Jason React to the Kelce Brothers Documentary&#x2026;</text>
      <text x="80" y="337" font-size="11" fill="#707481">Oct 19th</text>
      <rect x="137" y="327" width="42" height="14" rx="3" fill="#f3f4f6"/>
      <text x="158" y="338" font-size="10" font-weight="600" fill="#707481" text-anchor="middle">Ep 244</text>
      <!-- Timeline -->
      <rect x="344" y="324" width="532" height="8" rx="3" fill="#e8e8e8"/>
      <rect x="344" y="324" width="16" height="8" rx="2" fill="#ff6b6b"/>
      <rect x="434" y="324" width="16" height="8" rx="2" fill="#ff6b6b"/>
      <rect x="562" y="324" width="16" height="8" rx="2" fill="#4f9cf9"/>
      <rect x="690" y="324" width="16" height="8" rx="2" fill="#1d4ed8"/>
      <rect x="764" y="324" width="16" height="8" rx="2" fill="#00b09b"/>
      <rect x="839" y="324" width="21" height="8" rx="2" fill="#f97316"/>
      <!-- Duration -->
      <text x="956" y="330" font-size="12" font-weight="600" fill="#5a5f6e" text-anchor="end">51:18</text>
      <!-- Ad load 14% AVG -->
      <text x="1060" y="314" font-size="9" font-weight="600" fill="#707481" text-anchor="end">Ad Load</text>
      <text x="1060" y="331" font-size="14" font-weight="800" fill="#0e1323" text-anchor="end">14%</text>
      <rect x="1028" y="335" width="32" height="14" rx="3" fill="#fff3cd"/>
      <text x="1044" y="346" font-size="8" font-weight="700" fill="#92600a" text-anchor="middle">AVG</text>
    </g>
    <line x1="0" y1="360" x2="1088" y2="360" stroke="#e8e8e8" stroke-width="1"/>

    <!-- ══════════════════════════════════════ -->
    <!-- ROW 5 · Ep 243 · base y=360          -->
    <!-- ══════════════════════════════════════ -->
    <g id="Row-Ep243">
      <rect x="28" y="372" width="40" height="40" rx="8" fill="#1c3a38"/>
      <text x="48" y="396" font-size="10" font-weight="800" fill="white" text-anchor="middle">NH</text>
      <text x="80" y="384" font-size="13" font-weight="600" fill="#0e1323">It&#x2019;s Week 6: Jason On Eagles vs Browns, What&#x2019;s Wrong&#x2026;</text>
      <text x="80" y="401" font-size="11" fill="#707481">Oct 12th</text>
      <rect x="137" y="391" width="42" height="14" rx="3" fill="#f3f4f6"/>
      <text x="158" y="402" font-size="10" font-weight="600" fill="#707481" text-anchor="middle">Ep 243</text>
      <!-- Timeline -->
      <rect x="344" y="388" width="532" height="8" rx="3" fill="#e8e8e8"/>
      <rect x="344" y="388" width="16" height="8" rx="2" fill="#ff6b6b"/>
      <rect x="493" y="388" width="16" height="8" rx="2" fill="#ff6b6b"/>
      <rect x="674" y="388" width="16" height="8" rx="2" fill="#e8b84b"/>
      <rect x="823" y="388" width="16" height="8" rx="2" fill="#a855f7"/>
      <!-- Duration -->
      <text x="956" y="394" font-size="12" font-weight="600" fill="#5a5f6e" text-anchor="end">1:02:55</text>
      <!-- Ad load 9% LOW -->
      <text x="1060" y="378" font-size="9" font-weight="600" fill="#707481" text-anchor="end">Ad Load</text>
      <text x="1060" y="395" font-size="14" font-weight="800" fill="#0e1323" text-anchor="end">9%</text>
      <rect x="1028" y="399" width="32" height="14" rx="3" fill="#d6f0e0"/>
      <text x="1044" y="410" font-size="8" font-weight="700" fill="#0d6832" text-anchor="middle">LOW</text>
    </g>

    <!-- ── SEE MORE ── -->
    <g id="See-More-Button">
      <rect x="0" y="424" width="1088" height="48" fill="white"/>
      <line x1="0" y1="424" x2="1088" y2="424" stroke="#e8e8e8" stroke-width="1"/>
      <text x="483" y="453" font-size="13" font-weight="600" fill="#5a5f6e">See all episodes</text>
      <polyline points="597,447 603,454 609,447" fill="none" stroke="#707481" stroke-width="1.8" stroke-linecap="round" stroke-linejoin="round"/>
    </g>

  </g>

  <!-- Card border on top -->
  <rect width="1088" height="472" rx="20" fill="none" stroke="#e8e8e8" stroke-width="1"/>

</svg>
